<svg id="visual" viewBox="0 0 900 600" width="900" height="600" xmlns="http://www.w3.org/2000/svg" xmlns:xlink="http://www.w3.org/1999/xlink" version="1.1"><path d="M0 25L21.5 25C43 25 86 25 128.8 27C171.7 29 214.3 33 257.2 37C300 41 343 45 385.8 47C428.7 49 471.3 49 514.2 50C557 51 600 53 642.8 53C685.7 53 728.3 51 771.2 49C814 47 857 45 878.5 44L900 43L900 0L878.5 0C857 0 814 0 771.2 0C728.3 0 685.7 0 642.8 0C600 0 557 0 514.2 0C471.3 0 428.7 0 385.8 0C343 0 300 0 257.2 0C214.3 0 171.7 0 128.8 0C86 0 43 0 21.5 0L0 0Z" fill="#5085ed"></path><path d="M0 55L21.5 57C43 59 86 63 128.8 67C171.7 71 214.3 75 257.2 78C300 81 343 83 385.8 88C428.7 93 471.3 101 514.2 107C557 113 600 117 642.8 119C685.7 121 728.3 121 771.2 118C814 115 857 109 878.5 106L900 103L900 41L878.5 42C857 43 814 45 771.2 47C728.3 49 685.7 51 642.8 51C600 51 557 49 514.2 48C471.3 47 428.7 47 385.8 45C343 43 300 39 257.2 35C214.3 31 171.7 27 128.8 25C86 23 43 23 21.5 23L0 23Z" fill="#3f78e9"></path><path d="M0 235L21.5 235C43 235 86 235 128.8 235C171.7 235 214.3 235 257.2 231C300 227 343 219 385.8 219C428.7 219 471.3 227 514.2 227C557 227 600 219 642.8 214C685.7 209 728.3 207 771.2 215C814 223 857 241 878.5 250L900 259L900 101L878.5 104C857 107 814 113 771.2 116C728.3 119 685.7 119 642.8 117C600 115 557 111 514.2 105C471.3 99 428.7 91 385.8 86C343 81 300 79 257.2 76C214.3 73 171.7 69 128.8 65C86 61 43 57 21.5 55L0 53Z" fill="#2d6ce5"></path><path d="M0 295L21.5 296C43 297 86 299 128.8 294C171.7 289 214.3 277 257.2 272C300 267 343 269 385.8 273C428.7 277 471.3 283 514.2 278C557 273 600 257 642.8 253C685.7 249 728.3 257 771.2 268C814 279 857 293 878.5 300L900 307L900 257L878.5 248C857 239 814 221 771.2 213C728.3 205 685.7 207 642.8 212C600 217 557 225 514.2 225C471.3 225 428.7 217 385.8 217C343 217 300 225 257.2 229C214.3 233 171.7 233 128.8 233C86 233 43 233 21.5 233L0 233Z" fill="#155fe0"></path><path d="M0 427L21.5 424C43 421 86 415 128.8 414C171.7 413 214.3 417 257.2 421C300 425 343 429 385.8 425C428.7 421 471.3 409 514.2 408C557 407 600 417 642.8 421C685.7 425 728.3 423 771.2 426C814 429 857 437 878.5 441L900 445L900 305L878.5 298C857 291 814 277 771.2 266C728.3 255 685.7 247 642.8 251C600 255 557 271 514.2 276C471.3 281 428.7 275 385.8 271C343 267 300 265 257.2 270C214.3 275 171.7 287 128.8 292C86 297 43 295 21.5 294L0 293Z" fill="#0055d5"></path><path d="M0 505L21.5 508C43 511 86 517 128.8 515C171.7 513 214.3 503 257.2 498C300 493 343 493 385.8 494C428.7 495 471.3 497 514.2 498C557 499 600 499 642.8 500C685.7 501 728.3 503 771.2 505C814 507 857 509 878.5 510L900 511L900 443L878.5 439C857 435 814 427 771.2 424C728.3 421 685.7 423 642.8 419C600 415 557 405 514.2 406C471.3 407 428.7 419 385.8 423C343 427 300 423 257.2 419C214.3 415 171.7 411 128.8 412C86 413 43 419 21.5 422L0 425Z" fill="#004fc4"></path><path d="M0 559L21.5 561C43 563 86 567 128.8 566C171.7 565 214.3 559 257.2 557C300 555 343 557 385.8 559C428.7 561 471.3 563 514.2 566C557 569 600 573 642.8 574C685.7 575 728.3 573 771.2 568C814 563 857 555 878.5 551L900 547L900 509L878.5 508C857 507 814 505 771.2 503C728.3 501 685.7 499 642.8 498C600 497 557 497 514.2 496C471.3 495 428.7 493 385.8 492C343 491 300 491 257.2 496C214.3 501 171.7 511 128.8 513C86 515 43 509 21.5 506L0 503Z" fill="#0048b3"></path><path d="M0 601L21.5 601C43 601 86 601 128.8 601C171.7 601 214.3 601 257.2 601C300 601 343 601 385.8 601C428.7 601 471.3 601 514.2 601C557 601 600 601 642.8 601C685.7 601 728.3 601 771.2 601C814 601 857 601 878.5 601L900 601L900 545L878.5 549C857 553 814 561 771.2 566C728.3 571 685.7 573 642.8 572C600 571 557 567 514.2 564C471.3 561 428.7 559 385.8 557C343 555 300 553 257.2 555C214.3 557 171.7 563 128.8 564C86 565 43 561 21.5 559L0 557Z" fill="#0042a3"></path></svg>